<svg width="996" height="462" viewBox="0 0 996 462" fill="none" xmlns="http://www.w3.org/2000/svg">
<path d="M992.562 403.971H996V462H994.472C994.472 462 993.135 459.535 976.707 459.535H940.795V457.828C947.29 457.828 952.638 452.518 952.638 446.071V341.392C952.638 334.754 947.29 329.445 940.795 329.445V327.738H974.988V329.445C968.302 329.445 962.953 334.754 962.953 341.392V456.121H976.707C991.606 456.121 992.562 403.971 992.562 403.971Z" fill="white" fill-opacity="0.5"/>
<path d="M913.843 331.15H900.089V392.023H905.247C910.595 392.023 914.798 387.662 914.798 382.542V371.732H916.517V415.538H914.798V404.919C914.798 399.609 910.595 395.437 905.247 395.437H900.089V456.12H913.843C928.742 456.12 929.697 408.901 929.697 408.901H933.136V461.999H931.608C931.608 461.999 926.259 459.534 913.843 459.534H877.931V457.827C884.426 457.827 889.774 452.517 889.774 446.07V341.391C889.774 334.753 884.426 329.444 877.931 329.444V327.737H913.843C928.551 327.737 931.608 325.461 931.608 325.461H933.136V376.284H929.697C929.697 376.284 928.742 331.15 913.843 331.15Z" fill="white" fill-opacity="0.5"/>
<path d="M872.705 325.461H874.425V381.404H870.986C870.986 381.404 870.795 331.15 857.997 331.15C852.457 331.15 847.109 336.46 847.109 343.097V446.07C847.109 452.517 853.603 457.827 859.143 457.827V459.534H824.95V457.827C830.49 457.827 836.985 452.517 836.985 446.07V343.097C836.985 336.46 831.636 331.15 826.097 331.15C813.298 331.15 813.107 381.404 813.107 381.404H809.86V325.461H811.579C811.579 325.461 811.579 327.737 826.097 327.737H857.997C872.514 327.737 872.705 325.461 872.705 325.461Z" fill="white" fill-opacity="0.5"/>
<path d="M771.301 325.461C794.032 325.461 803.01 355.993 803.01 393.73C803.01 431.278 794.032 461.999 771.301 461.999C748.569 461.999 739.591 431.278 739.591 393.73C739.591 355.993 748.569 325.461 771.301 325.461ZM771.301 458.586C785.627 458.586 792.695 425.399 792.695 393.73C792.695 362.061 785.627 328.875 771.301 328.875C756.974 328.875 749.715 362.061 749.715 393.73C749.715 425.399 756.974 458.586 771.301 458.586Z" fill="white" fill-opacity="0.5"/>
<path d="M737.27 329.445C730.584 329.445 725.236 334.754 725.236 341.392V446.071C725.236 452.518 730.584 457.828 737.27 457.828V459.535H701.358V457.828C707.853 457.828 714.921 452.518 714.921 446.071V395.438H680.155V446.071C680.155 452.518 687.223 457.828 693.908 457.828V459.535H657.997V457.828C664.491 457.828 669.84 452.518 669.84 446.071V341.392C669.84 334.754 664.491 329.445 657.997 329.445V327.738H693.908V329.445C687.223 329.445 680.155 334.754 680.155 341.392V392.024H714.921V341.392C714.921 334.754 707.853 329.445 701.358 329.445V327.738H737.27V329.445Z" fill="white" fill-opacity="0.5"/>
<path d="M573.111 329.445C566.426 329.445 561.077 334.754 561.077 341.392V446.071C561.077 452.518 566.426 457.828 573.111 457.828V459.535H537.199V457.828C543.694 457.828 550.762 452.518 550.762 446.071V395.438H515.996V446.071C515.996 452.518 523.064 457.828 529.75 457.828V459.535H493.838V457.828C500.333 457.828 505.681 452.518 505.681 446.071V341.392C505.681 334.754 500.333 329.445 493.838 329.445V327.738H529.75V329.445C523.064 329.445 515.996 334.754 515.996 341.392V392.024H550.762V341.392C550.762 334.754 543.694 329.445 537.199 329.445V327.738H573.111V329.445Z" fill="white" fill-opacity="0.5"/>
<path d="M465.881 328.875C456.521 328.875 446.779 356.941 446.397 392.023V395.437C446.779 430.33 456.521 458.586 465.881 458.586C480.972 458.586 481.927 403.97 481.927 403.97H485.365V459.534H483.646L481.927 450.052C476.96 457.637 472.567 461.999 465.881 461.999C448.498 461.999 436.273 431.468 436.273 393.73C436.273 355.993 448.498 325.461 465.881 325.461C472.567 325.461 476.96 329.823 481.927 337.219L483.646 327.737H485.365V383.3H481.927C481.927 383.3 480.972 328.875 465.881 328.875Z" fill="white" fill-opacity="0.5"/>
<path d="M424.27 445.311C425.99 452.707 432.484 457.827 440.316 457.827V459.534H404.404V457.827C409.944 457.827 414.146 453.465 414.146 448.156C414.146 447.397 414.146 446.828 413.955 446.07L405.359 406.625H376.133L368.875 440.949C366.964 449.673 373.459 457.827 382.437 457.827V459.534H348.626V457.827C353.975 457.827 364.29 445.311 365.627 440.191L386.639 341.201C386.639 333.995 377.662 331.34 377.662 331.34V329.633C386.257 329.633 398.292 325.461 398.292 325.461L424.27 445.311ZM376.897 403.212H404.595L390.651 338.925L376.897 403.212Z" fill="white" fill-opacity="0.5"/>
<path d="M325.113 331.15H311.359V392.023H316.517C321.865 392.023 326.068 387.662 326.068 382.542V371.732H327.787V415.538H326.068V404.919C326.068 399.609 321.865 395.437 316.517 395.437H311.359V456.12H325.113C340.012 456.12 340.967 408.901 340.967 408.901H344.406V461.999H342.878C342.878 461.999 337.529 459.534 325.113 459.534H289.201V457.827C295.696 457.827 301.044 452.517 301.044 446.07V341.391C301.044 334.753 295.696 329.444 289.201 329.444V327.737H325.113C339.821 327.737 342.878 325.461 342.878 325.461H344.406V376.284H340.967C340.967 376.284 340.012 331.15 325.113 331.15Z" fill="white" fill-opacity="0.5"/>
<path d="M258.156 393.731C272.674 396.765 287.192 407.195 287.192 426.159C287.192 447.019 268.281 459.535 249.179 459.535H221.672V457.828C225.683 457.828 229.312 455.742 231.414 452.708C232.369 451.38 232.942 450.053 233.324 448.346C233.515 447.588 233.515 446.829 233.515 446.071V341.392C233.515 334.754 228.166 329.445 221.672 329.445V327.738H249.179C268.281 327.738 287.192 340.254 287.192 361.303C287.192 380.077 272.674 390.697 258.156 393.731ZM243.83 331.151V391.266H250.898C259.303 391.266 265.415 387.852 269.427 382.543C273.438 377.043 276.876 369.458 276.876 361.303C276.876 344.615 267.707 331.151 250.898 331.151H243.83ZM269.427 447.398C273.438 441.899 276.876 434.503 276.876 426.159C276.876 409.471 267.707 396.007 250.898 396.007H243.83V456.121H250.898C259.303 456.121 265.415 452.897 269.427 447.398Z" fill="white" fill-opacity="0.5"/>
<path d="M179.774 330.654H166.459V391.149H171.452C176.63 391.149 180.699 386.814 180.699 381.726V370.984H182.363V414.517H180.699V403.964C180.699 398.687 176.63 394.541 171.452 394.541H166.459V454.847H179.774C194.2 454.847 195.124 407.921 195.124 407.921H198.453V460.689H196.974C196.974 460.689 191.795 458.239 179.774 458.239H145.005V456.543C151.293 456.543 156.472 451.266 156.472 444.859V340.83C156.472 334.234 151.293 328.958 145.005 328.958V327.261H179.774C194.015 327.261 196.974 325 196.974 325H198.453V375.507H195.124C195.124 375.507 194.2 330.654 179.774 330.654Z" fill="white" fill-opacity="0.5"/>
<path d="M142.65 328.958C136.177 328.958 130.999 334.235 130.999 340.831V444.859C130.999 451.267 136.177 456.543 142.65 456.543V458.24H107.881V456.543C114.169 456.543 121.012 451.267 121.012 444.859V394.541H87.3528V444.859C87.3528 451.267 94.1956 456.543 100.669 456.543V458.24H65.8997V456.543C72.1877 456.543 77.366 451.267 77.366 444.859V340.831C77.366 334.235 72.1877 328.958 65.8997 328.958V327.262H100.669V328.958C94.1956 328.958 87.3528 334.235 87.3528 340.831V391.149H121.012V340.831C121.012 334.235 114.169 328.958 107.881 328.958V327.262H142.65V328.958Z" fill="white" fill-opacity="0.5"/>
<path d="M60.8456 325H62.5101V380.595H59.1811C59.1811 380.595 58.9962 330.654 46.6051 330.654C41.2419 330.654 36.0635 335.931 36.0635 342.527V444.859C36.0635 451.266 42.3515 456.543 47.7148 456.543V458.239H14.6103V456.543C19.9736 456.543 26.2616 451.266 26.2616 444.859V342.527C26.2616 335.931 21.0833 330.654 15.72 330.654C3.32894 330.654 3.144 380.595 3.144 380.595H0V325H1.66447C1.66447 325 1.66447 327.261 15.72 327.261H46.6051C60.6607 327.261 60.8456 325 60.8456 325Z" fill="white" fill-opacity="0.5"/>
<path d="M707.998 161.553C595.744 246.844 612.151 395.867 635.663 459.127H593.947C583.632 255.133 659.961 169.736 698.138 153.127L707.998 161.553Z" fill="#9D8383"/>
<path d="M693.946 162.68C660.005 159.071 608.043 212.204 587.816 240.753C587.713 213.424 611.434 182.863 623.307 170.999C600.004 171.172 572.618 188.845 561.837 197.66C575.455 156.874 616.799 141.996 635.769 139.655C623.025 131.054 586.76 134.971 570.22 138.005C590.209 101.52 647.383 118.151 673.472 131.027C655.924 112.367 622.355 93.6847 607.764 86.6757C636.849 74.5026 676.02 104.351 691.97 120.796C688.708 98.1484 663.528 68.4686 651.346 56.4596C692.171 68.1138 707.772 97.3861 710.469 110.565C716.224 91.7336 712.74 68.5563 710.278 59.3217C726.721 65.8772 733.593 97.7763 734.974 112.906C768.272 94.4905 789.463 108.037 795.897 117.113C782.64 112.708 754.66 125.248 742.327 132.069C801.677 140.324 810.84 159.382 808.003 167.88C793.127 155.567 756.308 152.864 739.758 153.052C793.84 169.11 803.506 204.599 801.578 220.337C784.545 197.481 753.331 183.038 739.853 178.673C791.34 208.883 776.998 256.753 763.391 276.912C764.831 236.992 745.28 213.573 735.324 206.853C756.648 243.963 730.333 288.675 714.511 306.391C728.154 272.437 723.537 241.492 719.523 230.263C708.037 274.761 677.375 289.844 663.479 291.824C710.19 229.386 705.484 181.717 695.361 163.611C695.065 163.082 694.549 162.745 693.946 162.68Z" fill="url(#paint0_linear_877_5)"/>
<defs>
<linearGradient id="paint0_linear_877_5" x1="749.946" y1="84.1165" x2="626.566" y2="266.908" gradientUnits="userSpaceOnUse">
<stop stop-color="#FFC13B"/>
<stop offset="1" stop-color="#409538"/>
</linearGradient>
</defs>
</svg>
