<svg width="283" height="134" viewBox="0 0 283 134" fill="none" xmlns="http://www.w3.org/2000/svg">
<path d="M203.418 47.3871C172.182 71.5574 176.747 114.072 183.29 131.999H171.682C168.812 74.1896 190.051 49.7058 200.674 44.9991L203.418 47.3871Z" fill="#9D8383"/>
<path d="M200.428 46.6719C190.68 46.3826 176.308 61.1293 170.634 69.1386C170.604 61.2903 177.416 52.5139 180.826 49.1067C174.134 49.1564 166.269 54.2318 163.173 56.7632C167.084 45.0503 178.957 40.7778 184.405 40.1056C180.745 37.6355 170.33 38.7605 165.58 39.6318C171.321 29.154 187.74 33.93 195.232 37.6278C190.193 32.2692 180.553 26.904 176.362 24.8912C184.715 21.3953 195.964 29.967 200.544 34.6898C199.608 28.1858 192.376 19.6625 188.878 16.2138C200.602 19.5606 205.082 27.9669 205.857 31.7517C207.51 26.3437 206.509 19.6877 205.802 17.0357C210.524 18.9183 212.497 28.079 212.894 32.424C222.456 27.1354 228.542 31.0257 230.39 33.6319C226.583 32.3669 218.547 35.9683 215.006 37.927C232.05 40.2978 234.681 45.7708 233.866 48.211C229.594 44.6751 219.021 43.8989 214.268 43.9528C229.799 48.5644 232.575 58.7561 232.021 63.2754C227.13 56.7117 218.166 52.5641 214.295 51.3108C229.081 59.9861 224.962 73.7333 221.055 79.5225C221.468 68.0586 215.854 61.333 212.995 59.4032C219.118 70.0605 211.561 82.9005 207.017 87.9883C210.936 78.2376 209.61 69.3507 208.457 66.1262C205.158 78.9048 196.353 83.2364 192.362 83.8049C205.284 66.5331 204.505 53.1965 201.832 47.5925C201.571 47.0456 201.034 46.6899 200.428 46.6719Z" fill="url(#paint0_linear_877_55)"/>
<path d="M281.796 117.336H282.728V133.167H282.314C282.314 133.167 281.952 132.495 277.502 132.495H267.775V132.029C269.534 132.029 270.983 130.581 270.983 128.821V100.262C270.983 98.4513 269.534 97.0026 267.775 97.0026V96.537H277.036V97.0026C275.226 97.0026 273.777 98.4513 273.777 100.262V131.564H277.502C281.538 131.564 281.796 117.336 281.796 117.336Z" fill="white"/>
<path d="M260.475 97.4683H256.75V114.076H258.147C259.595 114.076 260.733 112.886 260.733 111.489V108.54H261.199V120.492H260.733V117.594C260.733 116.146 259.595 115.007 258.147 115.007H256.75V131.564H260.475C264.51 131.564 264.769 118.681 264.769 118.681H265.7V133.167H265.286C265.286 133.167 263.838 132.495 260.475 132.495H250.748V132.029C252.507 132.029 253.956 130.581 253.956 128.821V100.262C253.956 98.4513 252.507 97.0026 250.748 97.0026V96.537H260.475C264.459 96.537 265.286 95.9161 265.286 95.9161H265.7V109.782H264.769C264.769 109.782 264.51 97.4683 260.475 97.4683Z" fill="white"/>
<path d="M249.332 95.9161H249.798V111.179H248.867C248.867 111.179 248.815 97.4683 245.349 97.4683C243.848 97.4683 242.399 98.9169 242.399 100.728V128.821C242.399 130.581 244.159 132.029 245.659 132.029V132.495H236.398V132.029C237.898 132.029 239.657 130.581 239.657 128.821V100.728C239.657 98.9169 238.209 97.4683 236.708 97.4683C233.242 97.4683 233.19 111.179 233.19 111.179H232.311V95.9161H232.776C232.776 95.9161 232.776 96.537 236.708 96.537H245.349C249.281 96.537 249.332 95.9161 249.332 95.9161Z" fill="white"/>
<path d="M221.868 95.9161C228.025 95.9161 230.456 104.246 230.456 114.542C230.456 124.786 228.025 133.167 221.868 133.167C215.711 133.167 213.279 124.786 213.279 114.542C213.279 104.246 215.711 95.9161 221.868 95.9161ZM221.868 132.236C225.748 132.236 227.662 123.182 227.662 114.542C227.662 105.902 225.748 96.8474 221.868 96.8474C217.987 96.8474 216.021 105.902 216.021 114.542C216.021 123.182 217.987 132.236 221.868 132.236Z" fill="white"/>
<path d="M212.649 97.0026C210.838 97.0026 209.389 98.4513 209.389 100.262V128.821C209.389 130.581 210.838 132.029 212.649 132.029V132.495H202.922V132.029C204.681 132.029 206.596 130.581 206.596 128.821V115.007H197.179V128.821C197.179 130.581 199.094 132.029 200.904 132.029V132.495H191.178V132.029C192.937 132.029 194.385 130.581 194.385 128.821V100.262C194.385 98.4513 192.937 97.0026 191.178 97.0026V96.537H200.904V97.0026C199.094 97.0026 197.179 98.4513 197.179 100.262V114.076H206.596V100.262C206.596 98.4513 204.681 97.0026 202.922 97.0026V96.537H212.649V97.0026Z" fill="white"/>
<path d="M168.188 97.0026C166.377 97.0026 164.929 98.4513 164.929 100.262V128.821C164.929 130.581 166.377 132.029 168.188 132.029V132.495H158.461V132.029C160.22 132.029 162.135 130.581 162.135 128.821V115.007H152.718V128.821C152.718 130.581 154.633 132.029 156.444 132.029V132.495H146.717V132.029C148.476 132.029 149.925 130.581 149.925 128.821V100.262C149.925 98.4513 148.476 97.0026 146.717 97.0026V96.537H156.444V97.0026C154.633 97.0026 152.718 98.4513 152.718 100.262V114.076H162.135V100.262C162.135 98.4513 160.22 97.0026 158.461 97.0026V96.537H168.188V97.0026Z" fill="white"/>
<path d="M139.144 96.8474C136.609 96.8474 133.971 104.505 133.867 114.076V115.007C133.971 124.527 136.609 132.236 139.144 132.236C143.232 132.236 143.49 117.336 143.49 117.336H144.422V132.495H143.956L143.49 129.908C142.145 131.978 140.955 133.167 139.144 133.167C134.436 133.167 131.125 124.838 131.125 114.542C131.125 104.246 134.436 95.9161 139.144 95.9161C140.955 95.9161 142.145 97.1061 143.49 99.1239L143.956 96.537H144.422V111.696H143.49C143.49 111.696 143.232 96.8474 139.144 96.8474Z" fill="white"/>
<path d="M127.873 128.615C128.339 130.632 130.098 132.029 132.219 132.029V132.495H122.492V132.029C123.993 132.029 125.131 130.839 125.131 129.391C125.131 129.184 125.131 129.028 125.079 128.821L122.751 118.06H114.835L112.869 127.425C112.352 129.805 114.111 132.029 116.542 132.029V132.495H107.385V132.029C108.833 132.029 111.627 128.615 111.989 127.218L117.681 100.21C117.681 98.2443 115.249 97.52 115.249 97.52V97.0544C117.577 97.0544 120.837 95.9161 120.837 95.9161L127.873 128.615ZM115.042 117.129H122.544L118.767 99.5895L115.042 117.129Z" fill="white"/>
<path d="M101.016 97.4683H97.2907V114.076H98.6876C100.136 114.076 101.274 112.886 101.274 111.489V108.54H101.74V120.492H101.274V117.594C101.274 116.146 100.136 115.007 98.6876 115.007H97.2907V131.564H101.016C105.051 131.564 105.31 118.681 105.31 118.681H106.241V133.167H105.827C105.827 133.167 104.379 132.495 101.016 132.495H91.2891V132.029C93.0482 132.029 94.4968 130.581 94.4968 128.821V100.262C94.4968 98.4513 93.0482 97.0026 91.2891 97.0026V96.537H101.016C105 96.537 105.827 95.9161 105.827 95.9161H106.241V109.782H105.31C105.31 109.782 105.051 97.4683 101.016 97.4683Z" fill="white"/>
<path d="M82.882 114.542C86.814 115.37 90.7461 118.215 90.7461 123.389C90.7461 129.08 85.6241 132.495 80.4503 132.495H73V132.029C74.0865 132.029 75.0695 131.46 75.6386 130.632C75.8973 130.27 76.0525 129.908 76.156 129.442C76.2078 129.235 76.2078 129.028 76.2078 128.821V100.262C76.2078 98.4513 74.7591 97.0026 73 97.0026V96.537H80.4503C85.6241 96.537 90.7461 99.9517 90.7461 105.695C90.7461 110.817 86.814 113.714 82.882 114.542ZM79.0016 97.4683V113.869H80.9159C83.1924 113.869 84.848 112.938 85.9345 111.489C87.021 109.989 87.9523 107.919 87.9523 105.695C87.9523 101.142 85.4689 97.4683 80.9159 97.4683H79.0016ZM85.9345 129.184C87.021 127.683 87.9523 125.665 87.9523 123.389C87.9523 118.836 85.4689 115.163 80.9159 115.163H79.0016V131.564H80.9159C83.1924 131.564 84.848 130.684 85.9345 129.184Z" fill="white"/>
<path d="M57.2017 97.5428H52.9648V114.051H54.5536C56.2013 114.051 57.4959 112.868 57.4959 111.48V108.548H58.0256V120.428H57.4959V117.548C57.4959 116.108 56.2013 114.977 54.5536 114.977H52.9648V131.434H57.2017C61.7917 131.434 62.0859 118.628 62.0859 118.628H63.1452V133.028H62.6744C62.6744 133.028 61.0267 132.36 57.2017 132.36H46.1387V131.897C48.1394 131.897 49.7871 130.457 49.7871 128.708V100.32C49.7871 98.52 48.1394 97.08 46.1387 97.08V96.6171H57.2017C61.7329 96.6171 62.6744 96 62.6744 96H63.1452V109.783H62.0859C62.0859 109.783 61.7917 97.5428 57.2017 97.5428Z" fill="white"/>
<path d="M45.3898 97.08C43.3302 97.08 41.6825 98.52 41.6825 100.32V128.708C41.6825 130.457 43.3302 131.897 45.3898 131.897V132.36H34.3268V131.897C36.3275 131.897 38.5049 130.457 38.5049 128.708V114.977H27.7949V128.708C27.7949 130.457 29.9722 131.897 32.0318 131.897V132.36H20.9688V131.897C22.9695 131.897 24.6172 130.457 24.6172 128.708V100.32C24.6172 98.52 22.9695 97.08 20.9688 97.08V96.6172H32.0318V97.08C29.9722 97.08 27.7949 98.52 27.7949 100.32V114.051H38.5049V100.32C38.5049 98.52 36.3275 97.08 34.3268 97.08V96.6172H45.3898V97.08Z" fill="white"/>
<path d="M19.3603 96H19.8899V111.171H18.8307C18.8307 111.171 18.7719 97.5428 14.8292 97.5428C13.1227 97.5428 11.475 98.9828 11.475 100.783V128.708C11.475 130.457 13.4757 131.897 15.1823 131.897V132.36H4.64883V131.897C6.35536 131.897 8.35613 130.457 8.35613 128.708V100.783C8.35613 98.9828 6.70844 97.5428 5.00191 97.5428C1.05923 97.5428 1.00038 111.171 1.00038 111.171H0V96H0.529614C0.529614 96 0.529614 96.6171 5.00191 96.6171H14.8292C19.3015 96.6171 19.3603 96 19.3603 96Z" fill="white"/>
<defs>
<linearGradient id="paint0_linear_877_55" x1="217.194" y1="24.1562" x2="181.762" y2="76.6498" gradientUnits="userSpaceOnUse">
<stop stop-color="#FFC13B"/>
<stop offset="1" stop-color="#409538"/>
</linearGradient>
</defs>
</svg>
