<svg xmlns="http://www.w3.org/2000/svg" fill="none" viewBox="0 4.04 39.1 50.39">
<path d="M24.332 17.4281C10.492 27.9592 12.5148 46.4828 15.4138 54.2937H10.2705C8.99871 29.106 18.4095 18.4384 23.1164 16.3877L24.332 17.4281Z" fill="#9D8383"/>
<path d="M22.2511 17.2838C18.0441 17.6702 12.2152 23.6891 9.8541 27.0216C9.84132 23.6137 12.7993 19.8028 14.2798 18.3233C11.374 18.3449 7.95891 20.5488 6.61461 21.648C8.31277 16.562 13.4683 14.7067 15.8337 14.4149C14.2447 13.3423 9.72239 13.8308 7.65988 14.2091C10.1526 9.65941 17.2821 11.7333 20.5353 13.3389C18.3471 11.0121 14.1611 8.68241 12.3416 7.80841C15.9684 6.29043 20.853 10.0124 22.842 12.0632C22.4352 9.23903 19.2953 5.538 17.7762 4.0405C22.867 5.49376 24.8124 9.14397 25.1488 10.7874C25.8664 8.43911 25.4319 5.54894 25.1249 4.3974C27.1753 5.21486 28.0323 9.19263 28.2044 11.0793C32.3566 8.7829 34.9992 10.4721 35.8015 11.6038C34.1483 11.0545 30.6593 12.6183 29.1214 13.4689C36.5222 14.4983 37.6649 16.8748 37.3111 17.9344C35.4561 16.3991 30.8648 16.062 28.801 16.0854C35.545 18.0879 36.7503 22.5133 36.51 24.4757C34.3859 21.6256 30.4936 19.8246 28.8129 19.2804C35.2333 23.0474 33.4449 29.0168 31.7481 31.5306C31.9276 26.5527 29.4896 23.6323 28.2481 22.7943C30.9072 27.4219 27.6258 32.9974 25.6527 35.2066C27.3541 30.9726 26.7783 27.1137 26.2777 25.7136C24.8455 31.2623 21.0219 33.1432 19.2892 33.3901C24.546 26.3634 24.5806 20.8367 23.6095 18.1661C23.4024 17.5966 22.8545 17.2284 22.2511 17.2838Z" fill="url(#paint0_linear_1059_105)"/>
<path d="M8.83984 12.5017C8.47193 12.8139 8.12549 13.1418 7.87891 13.5017H1V53.4304H38.0986V13.5017H33.1553V12.5017H39.0986V54.4304H0V12.5017H8.83984Z" fill="#002644"/>
<defs>
<linearGradient id="paint0_linear_1059_105" x1="30.0715" y1="7.48927" x2="14.6862" y2="30.2832" gradientUnits="userSpaceOnUse">
<stop stop-color="#FFC13B"/>
<stop offset="1" stop-color="#409538"/>
</linearGradient>
</defs>
</svg>